<mxfile host="app.diagrams.net" modified="2022-06-13T05:10:15.144Z" agent="5.0 (Windows NT 10.0; Win64; x64) AppleWebKit/537.36 (KHTML, like Gecko) Chrome/100.0.4896.127 Safari/537.36 OPR/86.0.4363.70" etag="bv42NY-OQ_jLbzLPE0Sh" version="20.0.0" type="github">
  <diagram id="1klkFCAQ3fPRCv4uGUu9" name="Page-1">
    <mxGraphModel dx="997" dy="540" grid="1" gridSize="10" guides="1" tooltips="1" connect="1" arrows="1" fold="1" page="1" pageScale="1" pageWidth="827" pageHeight="1169" math="0" shadow="0">
      <root>
        <mxCell id="0" />
        <mxCell id="1" parent="0" />
        <mxCell id="iGoXNWwP-2vNJ5SKM4UH-2" value="contenedor1&lt;br&gt;base de datos" style="shape=image;html=1;verticalAlign=top;verticalLabelPosition=bottom;labelBackgroundColor=#ffffff;imageAspect=0;aspect=fixed;image=https://cdn0.iconfinder.com/data/icons/social-media-2104/24/social_media_social_media_logo_docker-128.png" vertex="1" parent="1">
          <mxGeometry x="40" y="40" width="160" height="160" as="geometry" />
        </mxCell>
        <mxCell id="iGoXNWwP-2vNJ5SKM4UH-10" style="edgeStyle=orthogonalEdgeStyle;rounded=0;orthogonalLoop=1;jettySize=auto;html=1;exitX=0;exitY=0.5;exitDx=0;exitDy=0;entryX=1;entryY=0.5;entryDx=0;entryDy=0;" edge="1" parent="1" source="iGoXNWwP-2vNJ5SKM4UH-3" target="iGoXNWwP-2vNJ5SKM4UH-2">
          <mxGeometry relative="1" as="geometry" />
        </mxCell>
        <mxCell id="iGoXNWwP-2vNJ5SKM4UH-3" value="contenedor 2&lt;br&gt;scrip" style="shape=image;html=1;verticalAlign=top;verticalLabelPosition=bottom;labelBackgroundColor=#ffffff;imageAspect=0;aspect=fixed;image=https://cdn0.iconfinder.com/data/icons/social-media-2104/24/social_media_social_media_logo_docker-128.png" vertex="1" parent="1">
          <mxGeometry x="600" y="40" width="160" height="160" as="geometry" />
        </mxCell>
        <mxCell id="iGoXNWwP-2vNJ5SKM4UH-11" style="edgeStyle=orthogonalEdgeStyle;rounded=0;orthogonalLoop=1;jettySize=auto;html=1;exitX=0.5;exitY=0;exitDx=0;exitDy=0;entryX=0.5;entryY=1;entryDx=0;entryDy=0;" edge="1" parent="1" source="iGoXNWwP-2vNJ5SKM4UH-4" target="iGoXNWwP-2vNJ5SKM4UH-2">
          <mxGeometry relative="1" as="geometry" />
        </mxCell>
        <mxCell id="iGoXNWwP-2vNJ5SKM4UH-4" value="Contenedor 4&lt;br&gt;interface&lt;br&gt;" style="shape=image;html=1;verticalAlign=top;verticalLabelPosition=bottom;labelBackgroundColor=#ffffff;imageAspect=0;aspect=fixed;image=https://cdn0.iconfinder.com/data/icons/social-media-2104/24/social_media_social_media_logo_docker-128.png" vertex="1" parent="1">
          <mxGeometry x="60" y="380" width="160" height="160" as="geometry" />
        </mxCell>
        <mxCell id="iGoXNWwP-2vNJ5SKM4UH-12" style="edgeStyle=orthogonalEdgeStyle;rounded=0;orthogonalLoop=1;jettySize=auto;html=1;exitX=0;exitY=0;exitDx=0;exitDy=0;entryX=1;entryY=1;entryDx=0;entryDy=0;" edge="1" parent="1" source="iGoXNWwP-2vNJ5SKM4UH-5" target="iGoXNWwP-2vNJ5SKM4UH-2">
          <mxGeometry relative="1" as="geometry" />
        </mxCell>
        <mxCell id="iGoXNWwP-2vNJ5SKM4UH-5" value="Contenedor 3&lt;br&gt;API" style="shape=image;html=1;verticalAlign=top;verticalLabelPosition=bottom;labelBackgroundColor=#ffffff;imageAspect=0;aspect=fixed;image=https://cdn0.iconfinder.com/data/icons/social-media-2104/24/social_media_social_media_logo_docker-128.png" vertex="1" parent="1">
          <mxGeometry x="600" y="360" width="160" height="160" as="geometry" />
        </mxCell>
        <mxCell id="iGoXNWwP-2vNJ5SKM4UH-6" value="" style="image;html=1;image=img/lib/clip_art/computers/Database_128x128.png" vertex="1" parent="1">
          <mxGeometry x="80" y="130" width="60" height="40" as="geometry" />
        </mxCell>
        <mxCell id="iGoXNWwP-2vNJ5SKM4UH-7" value="" style="shape=image;html=1;verticalAlign=top;verticalLabelPosition=bottom;labelBackgroundColor=#ffffff;imageAspect=0;aspect=fixed;image=https://cdn2.iconfinder.com/data/icons/boxicons-logos/24/bxl-python-128.png" vertex="1" parent="1">
          <mxGeometry x="653" y="123" width="54" height="54" as="geometry" />
        </mxCell>
        <mxCell id="iGoXNWwP-2vNJ5SKM4UH-8" value="" style="sketch=0;html=1;dashed=0;whitespace=wrap;fillColor=#2875E2;strokeColor=#ffffff;points=[[0.005,0.63,0],[0.1,0.2,0],[0.9,0.2,0],[0.5,0,0],[0.995,0.63,0],[0.72,0.99,0],[0.5,1,0],[0.28,0.99,0]];shape=mxgraph.kubernetes.icon;prIcon=api" vertex="1" parent="1">
          <mxGeometry x="653" y="450" width="37" height="40" as="geometry" />
        </mxCell>
        <mxCell id="iGoXNWwP-2vNJ5SKM4UH-9" value="" style="sketch=0;html=1;aspect=fixed;strokeColor=none;shadow=0;align=center;verticalAlign=top;fillColor=#3B8DF1;shape=mxgraph.gcp2.enhance_ui_2" vertex="1" parent="1">
          <mxGeometry x="120" y="465.4" width="38.02" height="34.6" as="geometry" />
        </mxCell>
      </root>
    </mxGraphModel>
  </diagram>
</mxfile>
